<svg xmlns="http://www.w3.org/2000/svg" width="32" height="32" viewBox="0 0 32 32" fill="none" stroke="#333333" stroke-width="1.5" stroke-linecap="round" stroke-linejoin="round">
  <!-- Revolve: a solid of revolution drawn as a cake with three slices removed and a
       tube cored from the center; the exposed cut faces are the revolved profile. -->
  <!-- inner tube: front bottom arc, seen through the front slice gap -->
  <path opacity="0.5" d="M18.0 21.7 A4.8 1.7 0 0 1 14.0 21.7" />
  <!-- cut faces of the front slice (the rectangular profile), lightly filled -->
  <path fill="#333333" fill-opacity="0.14" d="M10.7 15.3 L14.0 12.7 L14.0 21.7 L10.7 24.3 Z" />
  <path fill="#333333" fill-opacity="0.14" d="M21.3 15.3 L18.0 12.7 L18.0 21.7 L21.3 24.3 Z" />
  <!-- top faces of the three remaining segments: outer arc, cut edge, inner arc -->
  <path d="M10.7 15.3 A12.5 4.5 0 0 1 3.5 10.8 L11.2 11.1 A4.8 1.7 0 0 0 14.0 12.7 Z" />
  <path d="M8.8 7.5 A12.5 4.5 0 0 1 23.2 7.5 L18.8 9.8 A4.8 1.7 0 0 0 13.2 9.8 Z" />
  <path d="M28.5 10.8 A12.5 4.5 0 0 1 21.3 15.3 L18.0 12.7 A4.8 1.7 0 0 0 20.8 11.1 Z" />
  <!-- outer wall: silhouette edges and the visible bottom rim -->
  <line x1="3.5" y1="11.2" x2="3.5" y2="20.2" />
  <line x1="28.5" y1="11.2" x2="28.5" y2="20.2" />
  <path d="M28.5 20.2 A12.5 4.5 0 0 1 21.3 24.3" />
  <path d="M10.7 24.3 A12.5 4.5 0 0 1 3.5 20.2" />
  <!-- depth hints at the two back slice gaps -->
  <line opacity="0.5" x1="8.8" y1="7.5" x2="8.8" y2="9.8" />
  <line opacity="0.5" x1="23.2" y1="7.5" x2="23.2" y2="9.8" />
  <!-- revolve axis, dashed, broken where the cake occludes it -->
  <g stroke-width="1.2" stroke-dasharray="2.5 2.5">
    <line x1="16" y1="2.8" x2="16" y2="6.7" />
    <line x1="16" y1="9.5" x2="16" y2="12.9" />
    <line x1="16" y1="24.7" x2="16" y2="29.2" />
  </g>
</svg>
