<svg xmlns="http://www.w3.org/2000/svg" width="32" height="32" viewBox="0 0 32 32" fill="none" stroke="currentColor" stroke-width="1.5" stroke-linecap="round" stroke-linejoin="round">
  <!-- a cube fused with a taller rectangular prism behind it, drawn as one union
       solid: the shared wall is omitted entirely (internal), so only the true
       outer silhouette is stroked with no line dividing the two shapes -->
  <path d="M21 2 L28 6 L21 10 L14 6 Z" fill="currentColor" fill-opacity="0.30" stroke="none" />
  <path d="M14 12 L21 16 L21 10 L14 6 Z" fill="currentColor" fill-opacity="0.10" stroke="none" />
  <path d="M28 20 L28 6 L21 10 L21 16 L14 20 L14 28 Z" fill="currentColor" fill-opacity="0.18" stroke="none" />
  <path d="M14 12 L21 16 L14 20 L7 16 Z" fill="currentColor" fill-opacity="0.30" stroke="none" />
  <path d="M7 24 L7 16 L14 20 L14 28 Z" fill="currentColor" fill-opacity="0.10" stroke="none" />
  <path d="M21 2 L28 6 L28 20 L14 28 L7 24 L7 16 L14 12 L14 6 Z" />
</svg>
