<svg xmlns="http://www.w3.org/2000/svg" width="32" height="32" viewBox="0 0 32 32" fill="none" stroke="currentColor" stroke-width="1.5" stroke-linecap="round" stroke-linejoin="round">
  <!-- isometric cube (kept body, normal color) with a red cutting column sinking
       through its top face (#35/#477) -->
  <path d="M16 6 L27 12 L16 18 L5 12 Z" fill="currentColor" fill-opacity="0.28" stroke="none" />
  <path d="M27 12 L27 24 L16 30 L16 18 Z" fill="currentColor" fill-opacity="0.18" stroke="none" />
  <path d="M5 12 L5 24 L16 30 L16 18 Z" fill="currentColor" fill-opacity="0.10" stroke="none" />
  <path d="M16 6 L27 12 L27 24 L16 30 L5 24 L5 12 Z" stroke="currentColor" />
  <!-- pocket rim where the tool enters -->
  <path d="M11.6 12 L16 14.4 L20.4 12" stroke="currentColor" />
  <!-- the cutting body: a red column standing in the pocket -->
  <path d="M11.6 6 L16 8.4 L20.4 6 L16 3.6 Z" fill="#d76a6a" fill-opacity="0.45" stroke="none" />
  <path d="M11.6 6 L16 8.4 L16 14.4 L11.6 12 Z" fill="#d76a6a" fill-opacity="0.30" stroke="none" />
  <path d="M16 8.4 L20.4 6 L20.4 12 L16 14.4 Z" fill="#d76a6a" fill-opacity="0.20" stroke="none" />
  <path d="M16 3.6 L20.4 6 L20.4 12 L16 14.4 L11.6 12 L11.6 6 Z" stroke="#d76a6a" />
  <line x1="16" y1="8.4" x2="16" y2="14.4" stroke="#d76a6a" />
</svg>
