<svg xmlns="http://www.w3.org/2000/svg" width="32" height="32" viewBox="0 0 32 32" fill="none" stroke="currentColor" stroke-width="1.6" stroke-linecap="round" stroke-linejoin="round">
  <!-- Revolve: a square profile swept 230 degrees around the vertical axis into a ring. -->
  <line x1="16" y1="2" x2="16" y2="30" stroke-dasharray="3 3" stroke-width="1.3" />
  <!-- bottom outer rim (drawn first, partly behind) -->
  <path d="M7.4 16.9 L7.0 17.3 L6.6 18.1 L6.5 18.9 L6.8 19.6 L7.5 20.4 L8.5 21.1 L9.9 21.6 L11.4 22.1 L13.2 22.4 L15.0 22.6 L17.0 22.6 L18.8 22.4 L20.6 22.1 L22.1 21.6 L23.5 21.1 L24.5 20.4 L25.2 19.6 L25.5 18.9 L25.4 18.1 L25.0 17.3 L24.6 16.9" opacity="0.55" />
  <!-- top outer rim -->
  <path d="M7.4 11.7 L7.0 12.1 L6.6 12.9 L6.5 13.7 L6.8 14.4 L7.5 15.2 L8.5 15.9 L9.9 16.4 L11.4 16.9 L13.2 17.2 L15.0 17.4 L17.0 17.4 L18.8 17.2 L20.6 16.9 L22.1 16.4 L23.5 15.9 L24.5 15.2 L25.2 14.4 L25.5 13.7 L25.4 12.9 L25.0 12.1 L24.6 11.7" />
  <!-- top inner rim -->
  <path d="M12.2 12.7 L11.9 13.0 L11.8 13.5 L11.9 13.9 L12.5 14.3 L13.3 14.7 L14.4 15.0 L15.6 15.2 L16.8 15.1 L18.0 14.9 L19.0 14.6 L19.8 14.2 L20.1 13.7 L20.1 13.0 L19.8 12.7" opacity="0.85" />
  <!-- square cross-section at each swept end -->
  <path d="M7.4 11.7 L12.2 12.7 L12.2 17.9 L7.4 16.9 Z" />
  <path d="M24.6 11.7 L19.8 12.7 L19.8 17.9 L24.6 16.9 Z" />
  <!-- sweep-direction arrow curling over the open front gap -->
  <path d="M13.2 25.0 C14.5 25.6 17.5 25.6 18.8 25.0" stroke-width="1.4" />
  <polyline points="17.4,24.2 18.9,25.0 17.9,26.4" stroke-width="1.4" />
</svg>
