<svg xmlns="http://www.w3.org/2000/svg" width="32" height="32" viewBox="0 0 32 32" fill="none" stroke="currentColor" stroke-width="1.5" stroke-linecap="round" stroke-linejoin="round">
  <!-- Revolve: an extruded pacman with a hole through his middle — a partial solid of
       revolution; the two cut faces of the mouth are the revolved profile. -->
  <!-- inner tube: back bottom rim of the hole, seen through the mouth behind the axis -->
  <path opacity="0.5" d="M11.2 20.2 A4.8 1.7 0 0 0 20.8 20.2" />
  <!-- cut faces of the mouth (the rectangular profile), lightly filled -->
  <path fill="currentColor" fill-opacity="0.14" d="M8.8 14.9 L13.2 12.6 L13.2 21.6 L8.8 23.9 Z" />
  <path fill="currentColor" fill-opacity="0.14" d="M23.2 14.9 L18.8 12.6 L18.8 21.6 L23.2 23.9 Z" />
  <!-- top face: outer arc around the back, cut edge, inner arc around the hole -->
  <path d="M8.8 14.9 A12.5 4.5 0 1 1 23.2 14.9 L18.8 12.6 A4.8 1.7 0 1 0 13.2 12.6 Z" />
  <!-- outer wall: silhouette edges and the visible bottom rim -->
  <line x1="3.5" y1="11.2" x2="3.5" y2="20.2" />
  <line x1="28.5" y1="11.2" x2="28.5" y2="20.2" />
  <path d="M28.5 20.2 A12.5 4.5 0 0 1 23.2 23.9" />
  <path d="M8.8 23.9 A12.5 4.5 0 0 1 3.5 20.2" />
  <!-- revolve axis, dashed; visible through the hole and the mouth -->
  <g stroke-width="1.2" stroke-dasharray="2.5 2.5">
    <line x1="16" y1="2.8" x2="16" y2="6.7" />
    <line x1="16" y1="9.5" x2="16" y2="29.2" />
  </g>
</svg>
